<svg width="293" height="237" viewBox="0 0 293 237" fill="none" xmlns="http://www.w3.org/2000/svg">
<path d="M47.2504 147.9C41.6804 150.69 40.8804 150.77 40.0804 148.68C39.0404 145.98 39.4104 116.95 40.5604 110.69C42.9604 97.68 50.2204 88.37 61.1604 84.28C64.1704 83.15 72.2304 81.32 79.0704 80.2C99.9604 76.81 108.59 73.23 118.31 63.91C123.12 59.31 128.34 49.79 130.86 41.03C131.77 37.87 133.49 34.39 134.68 33.28C138.27 29.93 145.17 30.95 147.42 35.16C148.73 37.62 146.24 53.91 143.43 61.26C139.54 71.41 134.31 80.71 128.52 87.76C125.36 91.61 122.26 95.74 121.63 96.94C119.3 101.34 120.32 119.82 124.08 141.51C124.86 145.99 123.59 146.33 117.39 143.34C106.53 138.09 88.0104 136.31 73.9704 139.17C65.8604 140.82 53.0104 145.02 47.2504 147.9ZM245.49 151.73C245.03 152.29 244.74 152.7 244.35 152.87C243.46 153.28 242.03 152.51 236.82 149.68C236.49 149.5 236.14 149.31 235.77 149.11C231.82 146.97 224.84 144.28 220.27 143.14C205.68 139.48 186.74 141.28 171.06 147.8C169.28 148.54 169.2 148.25 169.83 143.18C171.68 128.37 172.62 115.99 172.07 113.8C171.73 112.46 169.03 107.82 166.07 103.5C154.3 86.3 150.49 74.52 150.48 55.23C150.47 41.67 151.46 39.26 157.07 39.26C161.9 39.26 165.45 42.92 165.52 47.96C165.71 61.51 171.03 75 179.31 82.93C186.61 89.92 194.31 93.48 211.19 97.66C227.77 101.76 229.68 102.63 236.14 108.99C242.84 115.59 245.44 123.25 246.19 138.64C246.62 147.22 246.44 150.6 245.49 151.73ZM200.83 233.88C191 238.86 180.07 235.8 175.5 226.78C171.85 219.61 171.96 209.52 175.74 203.05C180.49 194.95 191.56 191.18 200.11 194.75C202.07 195.57 204.08 196 204.58 195.69C205.07 195.39 205.47 191.15 205.47 186.26C205.47 181.37 205.81 177.21 206.22 177.01C206.63 176.81 209.56 176.82 212.74 177.04L218.5 177.45L218.24 206.1L217.97 234.76L212.78 235.06C208.5 235.31 207.41 235.02 206.56 233.43C205.55 231.55 205.41 231.56 200.83 233.88ZM91.5704 70.12C87.2904 71.55 79.8904 71.47 75.9504 69.93C64.0604 65.3 58.3704 51.7 63.5504 40.28C66.2104 34.41 68.0004 32.54 73.6904 29.65C78.8404 27.04 87.1504 26.44 92.1504 28.32C104.84 33.07 110.03 46.72 103.87 59.09C101.08 64.67 97.0604 68.28 91.5704 70.12ZM213.17 88.04C206.73 90.85 196.67 88.59 190.68 83C180.44 73.45 183.58 54 196.21 48.72C204.08 45.44 216.79 47.54 221.67 52.92C224.53 56.09 227.42 63.55 227.45 67.81C227.49 75.76 221.33 84.5 213.17 88.04ZM28.5704 234.73C24.5204 236.15 13.6404 236.63 8.97041 235.58C0.870405 233.76 0.470406 233.41 0.470406 228.18C0.470406 225.48 0.900407 223.26 1.42041 223.26C1.94041 223.26 4.96041 223.94 8.13041 224.76C20.1304 227.89 27.9304 225.54 27.2704 219C26.9504 215.76 25.9804 215.1 11.4704 208.35C2.88041 204.36 -0.0395954 200.22 0.000404573 192.11C0.0704046 181.36 6.9204 176.26 21.3204 176.26C32.2104 176.26 37.4704 177.76 37.4704 180.85C37.4704 182.11 37.0404 184.26 36.5204 185.64C35.6504 187.92 35.2704 188.06 32.2704 187.2C27.8904 185.95 17.8204 186 15.4004 187.3C12.7504 188.72 12.8704 193.62 15.6304 196.19C16.8104 197.3 20.5304 199.12 23.8804 200.23C35.9904 204.27 40.4604 208.94 40.4704 217.54C40.4704 226.3 36.6004 231.89 28.5704 234.73ZM99.8304 233.88C87.8204 239.96 74.9404 233.1 76.8004 221.62C77.9304 214.64 83.0304 211.66 95.8704 210.49C104.87 209.68 106.41 208.2 102.41 204.2C100.44 202.23 99.5004 202.07 93.1004 202.56C89.1804 202.87 85.0104 203.41 83.8504 203.77C82.0104 204.34 81.6304 203.92 81.0304 200.71C80.6404 198.67 80.7304 196.6 81.2104 196.12C82.6804 194.65 97.6704 192.9 102.5 193.63C108.52 194.54 113.29 197.57 114.93 201.53C115.77 203.57 116.39 210.31 116.62 219.76L116.97 234.76L112.11 235.07C108.21 235.32 106.97 234.99 105.88 233.44C104.55 231.54 104.44 231.55 99.8304 233.88ZM261.47 222.03L260.97 234.76L255.22 235.06L249.47 235.36V194.26H254.97C258.7 194.26 260.47 194.66 260.49 195.51C260.53 199.17 262.13 199.33 267.9 196.3C277.48 191.26 286.66 193.03 290.31 200.61C291.89 203.9 293.05 223.91 292.05 230.58L291.35 235.26H279.47V221.41C279.47 208.9 279.28 207.4 277.49 205.78C274.83 203.37 267.11 204.17 264.11 207.17C262.21 209.07 261.91 210.74 261.47 222.03ZM137.53 208.2L136.97 234.76L124.47 235.36V215.41C124.47 214.47 124.47 213.57 124.47 212.7C124.46 200.19 124.46 196.15 126.34 194.85C127.24 194.24 128.57 194.24 130.54 194.26C130.82 194.26 131.12 194.26 131.43 194.26C134.83 194.26 135.28 194.56 135.82 197.24L136.41 200.21L141.55 197.02C148.05 192.98 156.57 192.47 161.14 195.85C166.32 199.68 166.97 202.3 166.97 219.26V234.76H154.97L154.69 221.31C154.47 210.57 154.08 207.49 152.78 206.06C150.62 203.66 144.83 203.75 140.75 206.23L137.53 208.2ZM70.9004 235.28C64.3704 237.77 53.7304 235.03 50.5104 230.03C49.5204 228.49 48.8704 223.73 48.5104 215.26L47.9704 202.76L45.2204 202.44C42.7504 202.16 42.4704 201.74 42.4704 198.26C42.4704 194.62 42.6704 194.37 45.7204 194.07C48.8804 193.77 49.0104 193.56 50.3804 186.96L51.7904 180.16L60.9704 180.76L61.2704 187.51L61.5604 194.26H72.5904L72.2804 198.01C72.0004 201.37 71.6604 201.79 68.9704 202.03C65.4504 202.36 63.5804 202.44 62.5904 203.41C61.4604 204.52 61.4604 206.78 61.4704 211.85C61.4704 212.24 61.4704 212.66 61.4704 213.09C61.4704 224.81 62.2304 226.25 68.7804 226.99C73.3404 227.51 73.4704 227.61 73.4704 230.91C73.4704 233.64 72.9604 234.5 70.9004 235.28ZM240.24 206.01L239.97 234.76L227.47 235.36V177.26H240.5L240.24 206.01ZM191.78 225.82C195.43 227.43 198.88 226.96 202.47 224.36C204.73 222.73 205 221.78 205.26 214.45C205.55 206.36 205.55 206.35 202.56 204.81C194.8 200.79 186.71 204.92 185.76 213.38C185.11 219.13 187.41 223.89 191.78 225.82ZM127.55 17.98C126.46 20.37 124.47 21.09 124.47 19.1C124.47 18.46 122.39 16.03 119.84 13.69L115.21 9.44L118.26 7.87C119.94 7 122.32 4.87 123.55 3.15L125.79 0L130.09 4.88C132.46 7.56 134.41 10.21 134.43 10.76C134.45 11.31 133.14 12.64 131.53 13.73C129.91 14.81 128.13 16.72 127.55 17.98ZM91.1204 226.43C93.1204 228.64 96.5704 228.77 100.4 226.8C103.46 225.21 104.47 223.45 104.47 219.68C104.47 217.43 104.11 217.26 99.1904 217.26C90.7704 217.26 86.8604 221.71 91.1204 226.43ZM157.92 24.19C157.76 24.29 157.61 24.4 157.46 24.5C154.4 26.57 153.32 27.29 152.77 27.01C152.44 26.84 152.3 26.32 152.04 25.51C151.73 24.55 150.04 22.95 148.29 21.95L145.1 20.14L148 18.24C149.6 17.19 151.68 15.31 152.62 14.06L154.34 11.78L158.4 16.19C160.64 18.61 162.47 20.71 162.47 20.86C162.47 21 160.42 22.5 157.92 24.19Z" fill="#E86312"/>
</svg>
