<svg xmlns="http://www.w3.org/2000/svg" width="411" height="265" viewBox="0 0 411 265">
<g>
<path d="M 109.78 162.64 C104.21,165.43 103.41,165.51 102.61,163.42 C101.57,160.72 101.94,131.69 103.09,125.43 C105.49,112.42 112.75,103.11 123.69,99.02 C126.70,97.89 134.76,96.06 141.60,94.94 C162.49,91.55 171.12,87.97 180.84,78.65 C185.65,74.05 190.87,64.53 193.39,55.77 C194.30,52.61 196.02,49.13 197.21,48.02 C200.80,44.67 207.70,45.69 209.95,49.90 C211.26,52.36 208.77,68.65 205.96,76.00 C202.07,86.15 196.84,95.45 191.05,102.50 C187.89,106.35 184.79,110.48 184.16,111.68 C181.83,116.08 182.85,134.56 186.61,156.25 C187.39,160.73 186.12,161.07 179.92,158.08 C169.06,152.83 150.54,151.05 136.50,153.91 C128.39,155.56 115.54,159.76 109.78,162.64 ZM 308.02 166.47 C307.56,167.03 307.27,167.44 306.88,167.61 C305.99,168.02 304.56,167.25 299.35,164.42 C299.02,164.24 298.67,164.05 298.30,163.85 C294.35,161.71 287.37,159.02 282.80,157.88 C268.21,154.22 249.27,156.02 233.59,162.54 C231.81,163.28 231.73,162.99 232.36,157.92 C234.21,143.11 235.15,130.73 234.60,128.54 C234.26,127.20 231.56,122.56 228.60,118.24 C216.83,101.04 213.02,89.26 213.01,69.97 C213.00,56.41 213.99,54.00 219.60,54.00 C224.43,54.00 227.98,57.66 228.05,62.70 C228.24,76.25 233.56,89.74 241.84,97.67 C249.14,104.66 256.84,108.22 273.72,112.40 C290.30,116.50 292.21,117.37 298.67,123.73 C305.37,130.33 307.97,137.99 308.72,153.38 C309.15,161.96 308.97,165.34 308.02,166.47 ZM 263.36 248.62 C253.53,253.60 242.60,250.54 238.03,241.52 C234.38,234.35 234.49,224.26 238.27,217.79 C243.02,209.69 254.09,205.92 262.64,209.49 C264.60,210.31 266.61,210.74 267.11,210.43 C267.60,210.13 268.00,205.89 268.00,201.00 C268.00,196.11 268.34,191.95 268.75,191.75 C269.16,191.55 272.09,191.56 275.27,191.78 L 281.03 192.19 L 280.77 220.84 L 280.50 249.50 L 275.31 249.80 C271.03,250.05 269.94,249.76 269.09,248.17 C268.08,246.29 267.94,246.30 263.36,248.62 ZM 154.10 84.86 C149.82,86.29 142.42,86.21 138.48,84.67 C126.59,80.04 120.90,66.44 126.08,55.02 C128.74,49.15 130.53,47.28 136.22,44.39 C141.37,41.78 149.68,41.18 154.68,43.06 C167.37,47.81 172.56,61.46 166.40,73.83 C163.61,79.41 159.59,83.02 154.10,84.86 ZM 275.70 102.78 C269.26,105.59 259.20,103.33 253.21,97.74 C242.97,88.19 246.11,68.74 258.74,63.46 C266.61,60.18 279.32,62.28 284.20,67.66 C287.06,70.83 289.95,78.29 289.98,82.55 C290.02,90.50 283.86,99.24 275.70,102.78 ZM 91.10 249.47 C87.05,250.89 76.17,251.37 71.50,250.32 C63.40,248.50 63.00,248.15 63.00,242.92 C63.00,240.22 63.43,238.00 63.95,238.00 C64.47,238.00 67.49,238.68 70.66,239.50 C82.66,242.63 90.46,240.28 89.80,233.74 C89.48,230.50 88.51,229.84 74.00,223.09 C65.41,219.10 62.49,214.96 62.53,206.85 C62.60,196.10 69.45,191.00 83.85,191.00 C94.74,191.00 100.00,192.50 100.00,195.59 C100.00,196.85 99.57,199.00 99.05,200.38 C98.18,202.66 97.80,202.80 94.80,201.94 C90.42,200.69 80.35,200.74 77.93,202.04 C75.28,203.46 75.40,208.36 78.16,210.93 C79.34,212.04 83.06,213.86 86.41,214.97 C98.52,219.01 102.99,223.68 103.00,232.28 C103.00,241.04 99.13,246.63 91.10,249.47 ZM 162.36 248.62 C150.35,254.70 137.47,247.84 139.33,236.36 C140.46,229.38 145.56,226.40 158.40,225.23 C167.40,224.42 168.94,222.94 164.94,218.94 C162.97,216.97 162.03,216.81 155.63,217.30 C151.71,217.61 147.54,218.15 146.38,218.51 C144.54,219.08 144.16,218.66 143.56,215.45 C143.17,213.41 143.26,211.34 143.74,210.86 C145.21,209.39 160.20,207.64 165.03,208.37 C171.05,209.28 175.82,212.31 177.46,216.27 C178.30,218.31 178.92,225.05 179.15,234.50 L 179.50 249.50 L 174.64 249.81 C170.74,250.06 169.50,249.73 168.41,248.18 C167.08,246.28 166.97,246.29 162.36,248.62 ZM 324.00 236.77 L 323.50 249.50 L 317.75 249.80 L 312.00 250.10 L 312.00 209.00 L 317.50 209.00 C321.23,209.00 323.00,209.40 323.02,210.25 C323.06,213.91 324.66,214.07 330.43,211.04 C340.01,206.00 349.19,207.77 352.84,215.35 C354.42,218.64 355.58,238.65 354.58,245.32 L 353.88 250.00 L 342.00 250.00 L 342.00 236.15 C342.00,223.64 341.81,222.14 340.02,220.52 C337.36,218.11 329.64,218.91 326.64,221.91 C324.74,223.81 324.44,225.48 324.00,236.77 ZM 200.06 222.94 L 199.50 249.50 L 187.00 250.10 L 187.00 230.15 C187.00,229.21 187.00,228.31 187.00,227.44 C186.99,214.93 186.99,210.89 188.87,209.59 C189.77,208.98 191.10,208.98 193.07,209.00 C193.35,209.00 193.65,209.00 193.96,209.00 C197.36,209.00 197.81,209.30 198.35,211.98 L 198.94 214.95 L 204.08 211.76 C210.58,207.72 219.10,207.21 223.67,210.59 C228.85,214.42 229.50,217.04 229.50,234.00 L 229.50 249.50 L 217.50 249.50 L 217.22 236.05 C217.00,225.31 216.61,222.23 215.31,220.80 C213.15,218.40 207.36,218.49 203.28,220.97 ZM 133.43 250.02 C126.90,252.51 116.26,249.77 113.04,244.77 C112.05,243.23 111.40,238.47 111.04,230.00 L 110.50 217.50 L 107.75 217.18 C105.28,216.90 105.00,216.48 105.00,213.00 C105.00,209.36 105.20,209.11 108.25,208.81 C111.41,208.51 111.54,208.30 112.91,201.70 L 114.32 194.90 L 123.50 195.50 L 123.80 202.25 L 124.09 209.00 L 135.12 209.00 L 134.81 212.75 C134.53,216.11 134.19,216.53 131.50,216.77 C127.98,217.10 126.11,217.18 125.12,218.15 C123.99,219.26 123.99,221.52 124.00,226.59 C124.00,226.98 124.00,227.40 124.00,227.83 C124.00,239.55 124.76,240.99 131.31,241.73 C135.87,242.25 136.00,242.35 136.00,245.65 C136.00,248.38 135.49,249.24 133.43,250.02 ZM 302.77 220.75 L 302.50 249.50 L 290.00 250.10 L 290.00 192.00 L 303.03 192.00 ZM 254.31 240.56 C257.96,242.17 261.41,241.70 265.00,239.10 C267.26,237.47 267.53,236.52 267.79,229.19 C268.08,221.10 268.08,221.09 265.09,219.55 C257.33,215.53 249.24,219.66 248.29,228.12 C247.64,233.87 249.94,238.63 254.31,240.56 ZM 190.08 32.72 C188.99,35.11 187.00,35.83 187.00,33.84 C187.00,33.20 184.92,30.77 182.37,28.43 L 177.74 24.18 L 180.79 22.61 C182.47,21.74 184.85,19.61 186.08,17.89 L 188.32 14.74 L 192.62 19.62 C194.99,22.30 196.94,24.95 196.96,25.50 C196.98,26.05 195.67,27.38 194.06,28.47 C192.44,29.55 190.66,31.46 190.08,32.72 ZM 153.65 241.17 C155.65,243.38 159.10,243.51 162.93,241.54 C165.99,239.95 167.00,238.19 167.00,234.42 C167.00,232.17 166.64,232.00 161.72,232.00 C153.30,232.00 149.39,236.45 153.65,241.17 ZM 220.45 38.93 C220.29,39.03 220.14,39.14 219.99,39.24 C216.93,41.31 215.85,42.03 215.30,41.75 C214.97,41.58 214.83,41.06 214.57,40.25 C214.26,39.29 212.57,37.69 210.82,36.69 L 207.63 34.88 L 210.53 32.98 C212.13,31.93 214.21,30.05 215.15,28.80 L 216.87 26.52 L 220.93 30.93 C223.17,33.35 225.00,35.45 225.00,35.60 C225.00,35.74 222.95,37.24 220.45,38.93 Z" fill="rgb(232,99,18)"/>
<path d="M 0.00 0.00 L 411.00 0.00 L 411.00 265.00 L 0.00 265.00 ZM 109.78 162.64 C115.54,159.76 128.39,155.56 136.50,153.91 C150.54,151.05 169.06,152.83 179.92,158.08 C186.12,161.07 187.39,160.73 186.61,156.25 C182.85,134.56 181.83,116.08 184.16,111.68 C184.79,110.48 187.89,106.35 191.05,102.50 C196.84,95.45 202.07,86.15 205.96,76.00 C207.89,70.96 209.67,61.71 210.17,55.60 L 210.12 57.17 C210.05,59.19 209.74,61.66 209.42,62.67 C208.92,64.27 209.00,64.26 210.09,62.54 C211.32,60.60 211.33,60.60 212.02,62.54 C212.55,64.05 212.82,63.63 213.16,60.75 C213.40,58.69 213.24,57.00 212.80,57.00 C212.36,57.00 211.95,57.56 211.88,58.25 C211.82,58.94 211.42,58.15 211.00,56.50 L 210.29 53.70 C210.36,51.85 210.26,50.48 209.95,49.90 C207.70,45.69 200.80,44.67 197.21,48.02 C196.02,49.13 194.30,52.61 193.39,55.77 C190.87,64.53 185.65,74.05 180.84,78.65 C171.12,87.97 162.49,91.55 141.60,94.94 C134.76,96.06 126.70,97.89 123.69,99.02 C112.75,103.11 105.49,112.42 103.09,125.43 C101.94,131.69 101.57,160.72 102.61,163.42 C103.41,165.51 104.21,165.43 109.78,162.64 ZM 308.02 166.47 C308.97,165.34 309.15,161.96 308.72,153.38 C307.97,137.99 305.37,130.33 298.67,123.73 C292.21,117.37 290.30,116.50 273.72,112.40 C256.84,108.22 249.14,104.66 241.84,97.67 C233.56,89.74 228.24,76.25 228.05,62.70 C227.98,57.66 224.43,54.00 219.60,54.00 C213.99,54.00 213.00,56.41 213.01,69.97 C213.02,89.26 216.83,101.04 228.60,118.24 C231.56,122.56 234.26,127.20 234.60,128.54 C235.15,130.73 234.21,143.11 232.36,157.92 C231.73,162.99 231.81,163.28 233.59,162.54 C249.27,156.02 268.21,154.22 282.80,157.88 C287.37,159.02 294.35,161.71 298.30,163.85 C298.67,164.05 299.02,164.24 299.35,164.42 C304.56,167.25 305.99,168.02 306.88,167.61 C307.27,167.44 307.56,167.03 308.02,166.47 ZM 263.36 248.62 C267.94,246.30 268.08,246.29 269.09,248.17 C269.94,249.76 271.03,250.05 275.31,249.80 L 280.50 249.50 L 280.77 220.84 L 281.03 192.19 L 275.27 191.78 C272.09,191.56 269.16,191.55 268.75,191.75 C268.34,191.95 268.00,196.11 268.00,201.00 C268.00,205.89 267.60,210.13 267.11,210.43 C266.61,210.74 264.60,210.31 262.64,209.49 C254.09,205.92 243.02,209.69 238.27,217.79 C234.49,224.26 234.38,234.35 238.03,241.52 C242.60,250.54 253.53,253.60 263.36,248.62 ZM 154.10 84.86 C159.59,83.02 163.61,79.41 166.40,73.83 C172.56,61.46 167.37,47.81 154.68,43.06 C149.68,41.18 141.37,41.78 136.22,44.39 C130.53,47.28 128.74,49.15 126.08,55.02 C120.90,66.44 126.59,80.04 138.48,84.67 C142.42,86.21 149.82,86.29 154.10,84.86 ZM 275.70 102.78 C283.86,99.24 290.02,90.50 289.98,82.55 C289.95,78.29 287.06,70.83 284.20,67.66 C279.32,62.28 266.61,60.18 258.74,63.46 C246.11,68.74 242.97,88.19 253.21,97.74 C259.20,103.33 269.26,105.59 275.70,102.78 ZM 91.10 249.47 C99.13,246.63 103.00,241.04 103.00,232.28 C102.99,223.68 98.52,219.01 86.41,214.97 C83.06,213.86 79.34,212.04 78.16,210.93 C75.40,208.36 75.28,203.46 77.93,202.04 C80.35,200.74 90.42,200.69 94.80,201.94 C97.80,202.80 98.18,202.66 99.05,200.38 C99.57,199.00 100.00,196.85 100.00,195.59 C100.00,192.50 94.74,191.00 83.85,191.00 C69.45,191.00 62.60,196.10 62.53,206.85 C62.49,214.96 65.41,219.10 74.00,223.09 C88.51,229.84 89.48,230.50 89.80,233.74 C90.46,240.28 82.66,242.63 70.66,239.50 C67.49,238.68 64.47,238.00 63.95,238.00 C63.43,238.00 63.00,240.22 63.00,242.92 C63.00,248.15 63.40,248.50 71.50,250.32 C76.17,251.37 87.05,250.89 91.10,249.47 ZM 162.36 248.62 C166.97,246.29 167.08,246.28 168.41,248.18 C169.50,249.73 170.74,250.06 174.64,249.81 L 179.50 249.50 L 179.15 234.50 C178.92,225.05 178.30,218.31 177.46,216.27 C175.82,212.31 171.05,209.28 165.03,208.37 C160.20,207.64 145.21,209.39 143.74,210.86 C143.26,211.34 143.17,213.41 143.56,215.45 C144.16,218.66 144.54,219.08 146.38,218.51 C147.54,218.15 151.71,217.61 155.63,217.30 C162.03,216.81 162.97,216.97 164.94,218.94 C168.94,222.94 167.40,224.42 158.40,225.23 C145.56,226.40 140.46,229.38 139.33,236.36 C137.47,247.84 150.35,254.70 162.36,248.62 ZM 324.00 236.77 C324.44,225.48 324.74,223.81 326.64,221.91 C329.64,218.91 337.36,218.11 340.02,220.52 C341.81,222.14 342.00,223.64 342.00,236.15 L 342.00 250.00 L 353.88 250.00 L 354.58 245.32 C355.58,238.65 354.42,218.64 352.84,215.35 C349.19,207.77 340.01,206.00 330.43,211.04 C324.66,214.07 323.06,213.91 323.02,210.25 C323.00,209.40 321.23,209.00 317.50,209.00 L 312.00 209.00 L 312.00 250.10 L 317.75 249.80 L 323.50 249.50 ZM 200.06 222.94 L 203.28 220.97 C207.36,218.49 213.15,218.40 215.31,220.80 C216.61,222.23 217.00,225.31 217.22,236.05 L 217.50 249.50 L 229.50 249.50 L 229.50 234.00 C229.50,217.04 228.85,214.42 223.67,210.59 C219.10,207.21 210.58,207.72 204.08,211.76 L 198.94 214.95 L 198.35 211.98 C197.81,209.30 197.36,209.00 193.96,209.00 C193.65,209.00 193.35,209.00 193.07,209.00 C191.10,208.98 189.77,208.98 188.87,209.59 C186.99,210.89 186.99,214.93 187.00,227.44 C187.00,228.31 187.00,229.21 187.00,230.15 L 187.00 250.10 L 199.50 249.50 ZM 133.43 250.02 C135.49,249.24 136.00,248.38 136.00,245.65 C136.00,242.35 135.87,242.25 131.31,241.73 C124.76,240.99 124.00,239.55 124.00,227.83 C124.00,227.40 124.00,226.98 124.00,226.59 C123.99,221.52 123.99,219.26 125.12,218.15 C126.11,217.18 127.98,217.10 131.50,216.77 C134.19,216.53 134.53,216.11 134.81,212.75 L 135.12 209.00 L 124.09 209.00 L 123.80 202.25 L 123.50 195.50 L 114.32 194.90 L 112.91 201.70 C111.54,208.30 111.41,208.51 108.25,208.81 C105.20,209.11 105.00,209.36 105.00,213.00 C105.00,216.48 105.28,216.90 107.75,217.18 L 110.50 217.50 L 111.04 230.00 C111.40,238.47 112.05,243.23 113.04,244.77 C116.26,249.77 126.90,252.51 133.43,250.02 ZM 302.77 220.75 L 303.03 192.00 L 290.00 192.00 L 290.00 250.10 L 302.50 249.50 ZM 254.31 240.56 C249.94,238.63 247.64,233.87 248.29,228.12 C249.24,219.66 257.33,215.53 265.09,219.55 C268.08,221.09 268.08,221.10 267.79,229.19 C267.53,236.52 267.26,237.47 265.00,239.10 C261.41,241.70 257.96,242.17 254.31,240.56 ZM 190.08 32.72 C190.66,31.46 192.44,29.55 194.06,28.47 C195.67,27.38 196.98,26.05 196.96,25.50 C196.94,24.95 194.99,22.30 192.62,19.62 L 188.32 14.74 L 186.08 17.89 C184.85,19.61 182.47,21.74 180.79,22.61 L 177.74 24.18 L 182.37 28.43 C184.92,30.77 187.00,33.20 187.00,33.84 C187.00,35.83 188.99,35.11 190.08,32.72 ZM 153.65 241.17 C149.39,236.45 153.30,232.00 161.72,232.00 C166.64,232.00 167.00,232.17 167.00,234.42 C167.00,238.19 165.99,239.95 162.93,241.54 C159.10,243.51 155.65,243.38 153.65,241.17 ZM 220.45 38.93 C222.95,37.24 225.00,35.74 225.00,35.60 C225.00,35.45 223.17,33.35 220.93,30.93 L 216.87 26.52 L 215.15 28.80 C214.21,30.05 212.13,31.93 210.53,32.98 L 207.63 34.88 L 210.82 36.69 C212.57,37.69 214.26,39.29 214.57,40.25 C214.83,41.06 214.97,41.58 215.30,41.75 C215.85,42.03 216.93,41.31 219.99,39.24 C220.14,39.14 220.29,39.03 220.45,38.93 Z" fill="rgb(249,249,247)"/>
<path d="M 209.42 62.67 C209.74,61.66 210.05,59.19 210.12,57.17 L 210.24 53.50 L 211.00 56.50 C211.42,58.15 211.82,58.94 211.88,58.25 C211.95,57.56 212.36,57.00 212.80,57.00 C213.24,57.00 213.40,58.69 213.16,60.75 C212.82,63.63 212.55,64.05 212.02,62.54 C211.33,60.60 211.32,60.60 210.09,62.54 C209.00,64.26 208.92,64.27 209.42,62.67 Z" fill="rgb(248,206,173)"/>
</g>
</svg>