<svg width="740" height="161" viewBox="0 0 740 161" fill="none" xmlns="http://www.w3.org/2000/svg">
<path d="M7.78163 147.9C2.21163 150.69 1.41163 150.77 0.611628 148.68C-0.428372 145.98 -0.0583766 116.95 1.09162 110.69C3.49162 97.68 10.7516 88.37 21.6916 84.28C24.7016 83.15 32.7616 81.32 39.6016 80.2C60.4916 76.81 69.1216 73.23 78.8416 63.91C83.6516 59.31 88.8716 49.79 91.3916 41.03C92.3016 37.87 94.0216 34.39 95.2116 33.28C98.8016 29.93 105.702 30.95 107.952 35.16C109.262 37.62 106.772 53.91 103.962 61.26C100.072 71.41 94.8416 80.71 89.0516 87.76C85.8916 91.61 82.7916 95.74 82.1616 96.94C79.8316 101.34 80.8516 119.82 84.6116 141.51C85.3916 145.99 84.1216 146.33 77.9216 143.34C67.0616 138.09 48.5416 136.31 34.5016 139.17C26.3916 140.82 13.5416 145.02 7.78163 147.9ZM206.022 151.73C205.562 152.29 205.272 152.7 204.882 152.87C203.992 153.28 202.562 152.51 197.352 149.68C197.022 149.5 196.672 149.31 196.302 149.11C192.352 146.97 185.372 144.28 180.802 143.14C166.212 139.48 147.272 141.28 131.592 147.8C129.812 148.54 129.732 148.25 130.362 143.18C132.212 128.37 133.152 115.99 132.602 113.8C132.262 112.46 129.562 107.82 126.602 103.5C114.832 86.3 111.022 74.52 111.012 55.23C111.002 41.67 111.992 39.26 117.602 39.26C122.432 39.26 125.982 42.92 126.052 47.96C126.242 61.51 131.562 75 139.842 82.93C147.142 89.92 154.842 93.48 171.722 97.66C188.302 101.76 190.212 102.63 196.672 108.99C203.372 115.59 205.972 123.25 206.722 138.64C207.152 147.22 206.972 150.6 206.022 151.73ZM435.361 127.74C425.531 132.72 414.601 129.66 410.031 120.64C406.381 113.47 406.491 103.38 410.271 96.91C415.021 88.81 426.091 85.04 434.641 88.61C436.601 89.43 438.611 89.86 439.111 89.55C439.601 89.25 440.001 85.01 440.001 80.12C440.001 75.23 440.341 71.07 440.751 70.87C441.161 70.67 444.091 70.68 447.271 70.9L453.031 71.31L452.771 99.96L452.501 128.62L447.311 128.92C443.031 129.17 441.941 128.88 441.091 127.29C440.081 125.41 439.941 125.42 435.361 127.74ZM52.1016 70.12C47.8216 71.55 40.4216 71.47 36.4816 69.93C24.5916 65.3 18.9016 51.7 24.0816 40.28C26.7416 34.41 28.5316 32.54 34.2216 29.65C39.3716 27.04 47.6816 26.44 52.6816 28.32C65.3716 33.07 70.5616 46.72 64.4016 59.09C61.6116 64.67 57.5916 68.28 52.1016 70.12ZM173.702 88.04C167.262 90.85 157.202 88.59 151.212 83C140.972 73.45 144.112 54 156.742 48.72C164.612 45.44 177.322 47.54 182.202 52.92C185.062 56.09 187.952 63.55 187.982 67.81C188.022 75.76 181.862 84.5 173.702 88.04ZM263.101 128.59C259.051 130.01 248.171 130.49 243.501 129.44C235.401 127.62 235.001 127.27 235.001 122.04C235.001 119.34 235.431 117.12 235.951 117.12C236.471 117.12 239.491 117.8 242.661 118.62C254.661 121.75 262.461 119.4 261.801 112.86C261.481 109.62 260.511 108.96 246.001 102.21C237.411 98.22 234.491 94.08 234.531 85.97C234.601 75.22 241.451 70.12 255.851 70.12C266.741 70.12 272.001 71.62 272.001 74.71C272.001 75.97 271.571 78.12 271.051 79.5C270.181 81.78 269.801 81.92 266.801 81.06C262.421 79.81 252.351 79.86 249.931 81.16C247.281 82.58 247.401 87.48 250.161 90.05C251.341 91.16 255.061 92.98 258.411 94.09C270.521 98.13 274.991 102.8 275.001 111.4C275.001 120.16 271.131 125.75 263.101 128.59ZM334.361 127.74C322.351 133.82 309.471 126.96 311.331 115.48C312.461 108.5 317.561 105.52 330.401 104.35C339.401 103.54 340.941 102.06 336.941 98.06C334.971 96.09 334.031 95.93 327.631 96.42C323.711 96.73 319.541 97.27 318.381 97.63C316.541 98.2 316.161 97.78 315.561 94.57C315.171 92.53 315.261 90.46 315.741 89.98C317.211 88.51 332.201 86.76 337.031 87.49C343.051 88.4 347.821 91.43 349.461 95.39C350.301 97.43 350.921 104.17 351.151 113.62L351.501 128.62L346.641 128.93C342.741 129.18 341.501 128.85 340.411 127.3C339.081 125.4 338.971 125.41 334.361 127.74ZM504.372 115.89L503.872 128.62L498.122 128.92L492.372 129.22V88.12H497.872C501.602 88.12 503.372 88.52 503.392 89.37C503.432 93.03 505.032 93.19 510.802 90.16C520.382 85.12 529.562 86.89 533.212 94.47C534.792 97.76 535.952 117.77 534.952 124.44L534.252 129.12H522.372V115.27C522.372 102.76 522.182 101.26 520.392 99.64C517.732 97.23 510.012 98.03 507.012 101.03C505.112 102.93 504.812 104.6 504.372 115.89ZM372.061 102.06L371.501 128.62L359.001 129.22V109.27C359.001 108.33 359.001 107.43 359.001 106.56C358.991 94.05 358.991 90.01 360.871 88.71C361.771 88.1 363.101 88.1 365.071 88.12C365.351 88.12 365.651 88.12 365.961 88.12C369.361 88.12 369.811 88.42 370.351 91.1L370.941 94.07L376.081 90.88C382.581 86.84 391.101 86.33 395.671 89.71C400.851 93.54 401.501 96.16 401.501 113.12V128.62H389.501L389.221 115.17C389.001 104.43 388.611 101.35 387.311 99.92C385.151 97.52 379.361 97.61 375.281 100.09L372.061 102.06ZM305.431 129.14C298.901 131.63 288.261 128.89 285.041 123.89C284.051 122.35 283.401 117.59 283.041 109.12L282.501 96.62L279.751 96.3C277.281 96.02 277.001 95.6 277.001 92.12C277.001 88.48 277.201 88.23 280.251 87.93C283.411 87.63 283.541 87.42 284.911 80.82L286.321 74.02L295.501 74.62L295.801 81.37L296.091 88.12H307.121L306.811 91.87C306.531 95.23 306.191 95.65 303.501 95.89C299.981 96.22 298.111 96.3 297.121 97.27C295.991 98.38 295.991 100.64 296.001 105.71C296.001 106.1 296.001 106.52 296.001 106.95C296.001 118.67 296.761 120.11 303.311 120.85C307.871 121.37 308.001 121.47 308.001 124.77C308.001 127.5 307.491 128.36 305.431 129.14ZM483.142 99.87L482.872 128.62L470.372 129.22V100.17V71.12H483.402L483.142 99.87ZM426.311 119.68C429.961 121.29 433.411 120.82 437.001 118.22C439.261 116.59 439.531 115.64 439.791 108.31C440.081 100.22 440.081 100.21 437.091 98.67C429.331 94.65 421.241 98.78 420.291 107.24C419.641 112.99 421.941 117.75 426.311 119.68ZM88.0816 17.98C86.9916 20.37 85.0016 21.09 85.0016 19.1C85.0016 18.46 82.9216 16.03 80.3716 13.69L75.7416 9.44L78.7916 7.87C80.4716 7 82.8516 4.87 84.0816 3.15L86.3216 0L90.6216 4.88C92.9916 7.56 94.9416 10.21 94.9616 10.76C94.9816 11.31 93.6716 12.64 92.0616 13.73C90.4416 14.81 88.6616 16.72 88.0816 17.98ZM325.651 120.29C327.651 122.5 331.101 122.63 334.931 120.66C337.991 119.07 339.001 117.31 339.001 113.54C339.001 111.29 338.641 111.12 333.721 111.12C325.301 111.12 321.391 115.57 325.651 120.29ZM118.452 24.19C118.292 24.29 118.142 24.4 117.992 24.5C114.932 26.57 113.852 27.29 113.302 27.01C112.972 26.84 112.832 26.32 112.572 25.51C112.262 24.55 110.572 22.95 108.822 21.95L105.632 20.14L108.532 18.24C110.132 17.19 112.212 15.31 113.152 14.06L114.872 11.78L118.932 16.19C121.172 18.61 123.002 20.71 123.002 20.86C123.002 21 120.952 22.5 118.452 24.19Z" fill="#E86312"/>
<path d="M543.64 100.84C543.64 95.2933 544.84 90.36 547.24 86.04C549.64 81.6667 552.973 78.28 557.24 75.88C561.56 73.4267 566.44 72.2 571.88 72.2C578.547 72.2 584.253 73.96 589 77.48C593.747 81 596.92 85.8 598.52 91.88H583.48C582.36 89.5333 580.76 87.7467 578.68 86.52C576.653 85.2933 574.333 84.68 571.72 84.68C567.507 84.68 564.093 86.1467 561.48 89.08C558.867 92.0133 557.56 95.9333 557.56 100.84C557.56 105.747 558.867 109.667 561.48 112.6C564.093 115.533 567.507 117 571.72 117C574.333 117 576.653 116.387 578.68 115.16C580.76 113.933 582.36 112.147 583.48 109.8H598.52C596.92 115.88 593.747 120.68 589 124.2C584.253 127.667 578.547 129.4 571.88 129.4C566.44 129.4 561.56 128.2 557.24 125.8C552.973 123.347 549.64 119.96 547.24 115.64C544.84 111.32 543.64 106.387 543.64 100.84ZM634.338 83.88C639.458 83.88 643.564 85.5867 646.658 89C649.751 92.36 651.298 97 651.298 102.92V129H637.698V104.76C637.698 101.773 636.924 99.4533 635.378 97.8C633.831 96.1467 631.751 95.32 629.138 95.32C626.524 95.32 624.444 96.1467 622.898 97.8C621.351 99.4533 620.578 101.773 620.578 104.76V129H606.898V69.8H620.578V90.36C621.964 88.3867 623.858 86.8133 626.258 85.64C628.658 84.4667 631.351 83.88 634.338 83.88ZM702.884 105.96C702.884 107.24 702.804 108.573 702.644 109.96H671.684C671.897 112.733 672.777 114.867 674.324 116.36C675.924 117.8 677.87 118.52 680.164 118.52C683.577 118.52 685.95 117.08 687.284 114.2H701.844C701.097 117.133 699.737 119.773 697.764 122.12C695.844 124.467 693.417 126.307 690.484 127.64C687.55 128.973 684.27 129.64 680.644 129.64C676.27 129.64 672.377 128.707 668.964 126.84C665.55 124.973 662.884 122.307 660.964 118.84C659.044 115.373 658.084 111.32 658.084 106.68C658.084 102.04 659.017 97.9867 660.884 94.52C662.804 91.0533 665.47 88.3867 668.884 86.52C672.297 84.6533 676.217 83.72 680.644 83.72C684.964 83.72 688.804 84.6267 692.164 86.44C695.524 88.2533 698.137 90.84 700.004 94.2C701.924 97.56 702.884 101.48 702.884 105.96ZM688.884 102.36C688.884 100.013 688.084 98.1467 686.484 96.76C684.884 95.3733 682.884 94.68 680.484 94.68C678.19 94.68 676.244 95.3467 674.644 96.68C673.097 98.0133 672.137 99.9067 671.764 102.36H688.884ZM723.781 91.8C725.381 89.3467 727.381 87.4267 729.781 86.04C732.181 84.6 734.847 83.88 737.781 83.88V98.36H734.021C730.607 98.36 728.047 99.1067 726.341 100.6C724.634 102.04 723.781 104.6 723.781 108.28V129H710.101V84.36H723.781V91.8Z" fill="#E86312"/>
</svg>
