<svg width="656" height="153" viewBox="0 0 656 153" fill="none" xmlns="http://www.w3.org/2000/svg">
<path d="M7.78163 147.9C2.21163 150.69 1.41163 150.77 0.611628 148.68C-0.428372 145.98 -0.0583766 116.95 1.09162 110.69C3.49162 97.68 10.7516 88.37 21.6916 84.28C24.7016 83.15 32.7616 81.32 39.6016 80.2C60.4916 76.81 69.1216 73.23 78.8416 63.91C83.6516 59.31 88.8716 49.79 91.3916 41.03C92.3016 37.87 94.0216 34.39 95.2116 33.28C98.8016 29.93 105.702 30.95 107.952 35.16C109.262 37.62 106.772 53.91 103.962 61.26C100.072 71.41 94.8416 80.71 89.0516 87.76C85.8916 91.61 82.7916 95.74 82.1616 96.94C79.8316 101.34 80.8516 119.82 84.6116 141.51C85.3916 145.99 84.1216 146.33 77.9216 143.34C67.0616 138.09 48.5416 136.31 34.5016 139.17C26.3916 140.82 13.5416 145.02 7.78163 147.9ZM206.022 151.73C205.562 152.29 205.272 152.7 204.882 152.87C203.992 153.28 202.562 152.51 197.352 149.68C197.022 149.5 196.672 149.31 196.302 149.11C192.352 146.97 185.372 144.28 180.802 143.14C166.212 139.48 147.272 141.28 131.592 147.8C129.812 148.54 129.732 148.25 130.362 143.18C132.212 128.37 133.152 115.99 132.602 113.8C132.262 112.46 129.562 107.82 126.602 103.5C114.832 86.3 111.022 74.52 111.012 55.23C111.002 41.67 111.992 39.26 117.602 39.26C122.432 39.26 125.982 42.92 126.052 47.96C126.242 61.51 131.562 75 139.842 82.93C147.142 89.92 154.842 93.48 171.722 97.66C188.302 101.76 190.212 102.63 196.672 108.99C203.372 115.59 205.972 123.25 206.722 138.64C207.152 147.22 206.972 150.6 206.022 151.73ZM52.1016 70.12C47.8216 71.55 40.4216 71.47 36.4816 69.93C24.5916 65.3 18.9016 51.7 24.0816 40.28C26.7416 34.41 28.5316 32.54 34.2216 29.65C39.3716 27.04 47.6816 26.44 52.6816 28.32C65.3716 33.07 70.5616 46.72 64.4016 59.09C61.6116 64.67 57.5916 68.28 52.1016 70.12ZM173.702 88.04C167.262 90.85 157.202 88.59 151.212 83C140.972 73.45 144.112 54 156.742 48.72C164.612 45.44 177.322 47.54 182.202 52.92C185.062 56.09 187.952 63.55 187.982 67.81C188.022 75.76 181.862 84.5 173.702 88.04ZM88.0816 17.98C86.9916 20.37 85.0016 21.09 85.0016 19.1C85.0016 18.46 82.9216 16.03 80.3716 13.69L75.7416 9.44L78.7916 7.87C80.4716 7 82.8516 4.87 84.0816 3.15L86.3216 0L90.6216 4.88C92.9916 7.56 94.9416 10.21 94.9616 10.76C94.9816 11.31 93.6716 12.64 92.0616 13.73C90.4416 14.81 88.6616 16.72 88.0816 17.98ZM118.452 24.19C118.292 24.29 118.142 24.4 117.992 24.5C114.932 26.57 113.852 27.29 113.302 27.01C112.972 26.84 112.832 26.32 112.572 25.51C112.262 24.55 110.572 22.95 108.822 21.95L105.632 20.14L108.532 18.24C110.132 17.19 112.212 15.31 113.152 14.06L114.872 11.78L118.932 16.19C121.172 18.61 123.002 20.71 123.002 20.86C123.002 21 120.952 22.5 118.452 24.19Z" fill="#E86312"/>
<path d="M263.6 121L251.92 99.8H248.64V121H234.96V64.84H257.92C262.347 64.84 266.107 65.6133 269.2 67.16C272.347 68.7067 274.693 70.84 276.24 73.56C277.787 76.2267 278.56 79.2133 278.56 82.52C278.56 86.2533 277.493 89.5867 275.36 92.52C273.28 95.4533 270.187 97.5333 266.08 98.76L279.04 121H263.6ZM248.64 90.12H257.12C259.627 90.12 261.493 89.5067 262.72 88.28C264 87.0533 264.64 85.32 264.64 83.08C264.64 80.9467 264 79.2667 262.72 78.04C261.493 76.8133 259.627 76.2 257.12 76.2H248.64V90.12ZM329.227 97.96C329.227 99.24 329.148 100.573 328.988 101.96H298.028C298.241 104.733 299.121 106.867 300.668 108.36C302.268 109.8 304.214 110.52 306.508 110.52C309.921 110.52 312.294 109.08 313.628 106.2H328.188C327.441 109.133 326.081 111.773 324.108 114.12C322.188 116.467 319.761 118.307 316.828 119.64C313.894 120.973 310.614 121.64 306.988 121.64C302.614 121.64 298.721 120.707 295.308 118.84C291.894 116.973 289.228 114.307 287.308 110.84C285.388 107.373 284.428 103.32 284.428 98.68C284.428 94.04 285.361 89.9867 287.228 86.52C289.148 83.0533 291.814 80.3867 295.228 78.52C298.641 76.6533 302.561 75.72 306.988 75.72C311.308 75.72 315.148 76.6267 318.508 78.44C321.868 80.2533 324.481 82.84 326.348 86.2C328.268 89.56 329.227 93.48 329.227 97.96ZM315.228 94.36C315.228 92.0133 314.428 90.1467 312.828 88.76C311.228 87.3733 309.228 86.68 306.828 86.68C304.534 86.68 302.588 87.3467 300.988 88.68C299.441 90.0133 298.481 91.9067 298.108 94.36H315.228ZM350.124 61.8V121H336.444V61.8H350.124ZM366.918 71.72C364.518 71.72 362.545 71.0267 360.998 69.64C359.505 68.2 358.758 66.44 358.758 64.36C358.758 62.2267 359.505 60.4667 360.998 59.08C362.545 57.64 364.518 56.92 366.918 56.92C369.265 56.92 371.185 57.64 372.678 59.08C374.225 60.4667 374.998 62.2267 374.998 64.36C374.998 66.44 374.225 68.2 372.678 69.64C371.185 71.0267 369.265 71.72 366.918 71.72ZM373.718 76.36V121H360.038V76.36H373.718ZM425.712 97.96C425.712 99.24 425.632 100.573 425.472 101.96H394.512C394.725 104.733 395.605 106.867 397.152 108.36C398.752 109.8 400.699 110.52 402.992 110.52C406.405 110.52 408.779 109.08 410.112 106.2H424.672C423.925 109.133 422.565 111.773 420.592 114.12C418.672 116.467 416.245 118.307 413.312 119.64C410.379 120.973 407.099 121.64 403.472 121.64C399.099 121.64 395.205 120.707 391.792 118.84C388.379 116.973 385.712 114.307 383.792 110.84C381.872 107.373 380.912 103.32 380.912 98.68C380.912 94.04 381.845 89.9867 383.712 86.52C385.632 83.0533 388.299 80.3867 391.712 78.52C395.125 76.6533 399.045 75.72 403.472 75.72C407.792 75.72 411.632 76.6267 414.992 78.44C418.352 80.2533 420.965 82.84 422.832 86.2C424.752 89.56 425.712 93.48 425.712 97.96ZM411.712 94.36C411.712 92.0133 410.912 90.1467 409.312 88.76C407.712 87.3733 405.712 86.68 403.312 86.68C401.019 86.68 399.072 87.3467 397.472 88.68C395.925 90.0133 394.965 91.9067 394.592 94.36H411.712ZM455.329 87.72H447.969V121H434.289V87.72H429.329V76.36H434.289V75.08C434.289 69.5867 435.862 65.4267 439.009 62.6C442.155 59.72 446.769 58.28 452.849 58.28C453.862 58.28 454.609 58.3067 455.089 58.36V69.96C452.475 69.8 450.635 70.1733 449.569 71.08C448.502 71.9867 447.969 73.6133 447.969 75.96V76.36H455.329V87.72ZM459.437 92.84C459.437 87.2933 460.637 82.36 463.037 78.04C465.437 73.6667 468.77 70.28 473.037 67.88C477.357 65.4267 482.237 64.2 487.677 64.2C494.344 64.2 500.05 65.96 504.797 69.48C509.544 73 512.717 77.8 514.317 83.88H499.277C498.157 81.5333 496.557 79.7467 494.477 78.52C492.45 77.2933 490.13 76.68 487.517 76.68C483.304 76.68 479.89 78.1467 477.277 81.08C474.664 84.0133 473.357 87.9333 473.357 92.84C473.357 97.7467 474.664 101.667 477.277 104.6C479.89 107.533 483.304 109 487.517 109C490.13 109 492.45 108.387 494.477 107.16C496.557 105.933 498.157 104.147 499.277 101.8H514.317C512.717 107.88 509.544 112.68 504.797 116.2C500.05 119.667 494.344 121.4 487.677 121.4C482.237 121.4 477.357 120.2 473.037 117.8C468.77 115.347 465.437 111.96 463.037 107.64C460.637 103.32 459.437 98.3867 459.437 92.84ZM550.134 75.88C555.254 75.88 559.361 77.5867 562.454 81C565.548 84.36 567.094 89 567.094 94.92V121H553.494V96.76C553.494 93.7733 552.721 91.4533 551.174 89.8C549.628 88.1467 547.548 87.32 544.934 87.32C542.321 87.32 540.241 88.1467 538.694 89.8C537.148 91.4533 536.374 93.7733 536.374 96.76V121H522.694V61.8H536.374V82.36C537.761 80.3867 539.654 78.8133 542.054 77.64C544.454 76.4667 547.148 75.88 550.134 75.88ZM618.681 97.96C618.681 99.24 618.601 100.573 618.441 101.96H587.481C587.694 104.733 588.574 106.867 590.121 108.36C591.721 109.8 593.667 110.52 595.961 110.52C599.374 110.52 601.747 109.08 603.081 106.2H617.641C616.894 109.133 615.534 111.773 613.561 114.12C611.641 116.467 609.214 118.307 606.281 119.64C603.347 120.973 600.067 121.64 596.441 121.64C592.067 121.64 588.174 120.707 584.761 118.84C581.347 116.973 578.681 114.307 576.761 110.84C574.841 107.373 573.881 103.32 573.881 98.68C573.881 94.04 574.814 89.9867 576.681 86.52C578.601 83.0533 581.267 80.3867 584.681 78.52C588.094 76.6533 592.014 75.72 596.441 75.72C600.761 75.72 604.601 76.6267 607.961 78.44C611.321 80.2533 613.934 82.84 615.801 86.2C617.721 89.56 618.681 93.48 618.681 97.96ZM604.681 94.36C604.681 92.0133 603.881 90.1467 602.281 88.76C600.681 87.3733 598.681 86.68 596.281 86.68C593.987 86.68 592.041 87.3467 590.441 88.68C588.894 90.0133 587.934 91.9067 587.561 94.36H604.681ZM639.578 83.8C641.178 81.3467 643.178 79.4267 645.578 78.04C647.978 76.6 650.644 75.88 653.578 75.88V90.36H649.818C646.404 90.36 643.844 91.1067 642.138 92.6C640.431 94.04 639.578 96.6 639.578 100.28V121H625.898V76.36H639.578V83.8Z" fill="#E86312"/>
</svg>
